<?xml version="1.0" standalone="no"?><!DOCTYPE svg PUBLIC "-//W3C//DTD SVG 1.1//EN"
        "http://www.w3.org/Graphics/SVG/1.1/DTD/svg11.dtd">
<svg t="1652531031358" class="icon" viewBox="0 0 1024 1024" version="1.1" xmlns="http://www.w3.org/2000/svg"
     p-id="16061" width="200" height="200">
    <defs>
        <style type="text/css">@font-face { font-family: element-icons; src:
            url("chrome-extension://moombeodfomdpjnpocobemoiaemednkg/fonts/element-icons.woff") format("woff"),
            url("chrome-extension://moombeodfomdpjnpocobemoiaemednkg/fonts/element-icons.ttf ") format("truetype"); }
        </style>
    </defs>
    <path d="M543.829 890.849H215.922V132.717h397.719v187.922h196.23v312.378c36.986 26.948 63.363 66.487 72.109 111.923V256.277L673.228 63.868H143.813v895.829h531.68c-53.344-4.915-100.276-30.764-131.664-68.848zM881.981 811.31c-15.25 79.226-84.102 140.535-169.331 148.388h169.331V811.31z"
          fill="#819292" p-id="16062"></path>
    <path d="M302.442 418.318h434.981v67.128H302.442zM302.442 578.422h218.64v67.128h-218.64zM302.442 738.526h137.512v67.128H302.442z"
          fill="#819292" p-id="16063"></path>
    <path d="M881.981 811.31c2.072-10.762 3.163-21.851 3.163-33.185s-1.092-22.423-3.163-33.185c-8.746-45.436-35.123-84.975-72.109-111.923-32.132-23.411-72.261-37.325-115.801-37.325-105.527 0-191.073 81.678-191.073 182.433 0 42.549 15.257 81.694 40.831 112.724 31.388 38.084 78.32 63.933 131.664 68.849 6.114 0.563 12.309 0.861 18.578 0.861s12.464-0.297 18.578-0.861c85.231-7.854 154.082-69.162 169.332-148.388z m-70.977 41.948l-38.242 36.513-78.691-75.133-78.691 75.132-38.242-36.513 78.691-75.133-78.691-75.133 38.242-36.513 78.691 75.133 78.691-75.133 38.242 36.513-78.691 75.133 78.691 75.134z"
          fill="#BD3C20" p-id="16064"></path>
    <path d="M811.004 702.992l-38.242-36.513-78.691 75.133-78.691-75.133-38.241 36.513 78.691 75.133-78.691 75.133 38.241 36.512 78.691-75.133 78.691 75.133 38.242-36.512-78.691-75.133z"
          fill="#FFFFFF" p-id="16065"></path>
</svg>