<?xml version="1.0" standalone="no"?><!DOCTYPE svg PUBLIC "-//W3C//DTD SVG 1.1//EN"
        "http://www.w3.org/Graphics/SVG/1.1/DTD/svg11.dtd">
<svg t="1652530855947" class="icon" viewBox="0 0 1168 1024" version="1.1" xmlns="http://www.w3.org/2000/svg"
     p-id="15255" width="228.125" height="200">
    <defs>
        <style type="text/css">@font-face { font-family: element-icons; src:
            url("chrome-extension://moombeodfomdpjnpocobemoiaemednkg/fonts/element-icons.woff") format("woff"),
            url("chrome-extension://moombeodfomdpjnpocobemoiaemednkg/fonts/element-icons.ttf ") format("truetype"); }
        </style>
    </defs>
    <path d="M33.495327 382.803738h951.88251v68.357811H33.495327z" fill="#A2D6F9" opacity=".4" p-id="15256"></path>
    <path d="M33.495327 334.269693h951.88251v68.35781H33.495327z" fill="#5CB6FF" p-id="15257"></path>
    <path d="M906.766355 171.919893h-410.146862v-136.715621h310.00267c55.369826 0 100.144192 44.774366 100.144192 100.144193v36.571428z"
          fill="#5CB6FF" opacity=".8" p-id="15258"></path>
    <path d="M931.033378 957.009346H94.333778C42.381842 957.009346 0 913.260347 0 859.257677V92.966622C0 41.698264 40.331108 0 89.890521 0h343.839786c42.723632 0 77.586115 35.88785 77.586115 80.320427V164.058745h428.261682C987.086782 164.058745 1025.367156 203.706275 1025.367156 252.582109v606.675568c0 54.00267-42.381842 97.751669-94.333778 97.751669zM89.890521 68.35781c-11.962617 0-21.53271 10.93725-21.532711 24.608812v766.291055c0 16.405874 11.620828 29.393858 25.975968 29.393858h836.6996c14.35514 0 25.975968-12.987984 25.975968-29.393858V252.582109c0-11.279039-7.861148-20.165554-17.431242-20.165554H442.958611V80.320427c0-6.493992-4.443258-11.962617-9.228304-11.962617H89.890521z"
          fill="#424242" p-id="15259"></path>
    <path d="M860.624833 716.731642m-273.431242 0a273.431242 273.431242 0 1 0 546.862484 0 273.431242 273.431242 0 1 0-546.862484 0Z"
          fill="#EA421B" p-id="15260"></path>
    <path d="M860.624833 1024c-78.611482 0-157.564753-30.077437-217.377837-89.890521-119.967957-119.967957-119.967957-315.129506 0-435.097463s315.129506-119.967957 435.097463 0 119.967957 315.129506 0 435.097463a308.293725 308.293725 0 0 1-217.719626 89.890521z m0-546.520694c-61.18024 0-122.70227 23.241656-169.185581 70.066755a239.491589 239.491589 0 0 0 0 338.371162c93.308411 93.308411 245.06275 93.308411 338.371162 0s93.308411-245.06275 0-338.371162a238.329506 238.329506 0 0 0-169.185581-70.066755z"
          fill="#FFFFFF" p-id="15261"></path>
    <path d="M960.769025 748.859813h-205.073431c-18.798398 0-34.178905-15.380507-34.178905-34.178905s15.380507-34.178905 34.178905-34.178905h205.073431c18.798398 0 34.178905 15.380507 34.178906 34.178905s-15.038718 34.178905-34.178906 34.178905z"
          fill="#FFFFFF" p-id="15262"></path>
</svg>