<?xml version="1.0" encoding="UTF-8"?>
<svg width="195px" height="166px" viewBox="0 0 195 166" version="1.1" xmlns="http://www.w3.org/2000/svg"
>
    <title>folder</title>
    <g id="页面-1" stroke="none" stroke-width="1" fill="none" fill-rule="evenodd">
        <g id="folder" transform="translate(0.750000, 0.562500)" fill-rule="nonzero">
            <path d="M183.4375,34.0625 L88.75,34.0625 L70.9375,5 C70.625,4.6875 70.3125,4.375 70.3125,4.0625 C67.8125,1.25 64.6875,0 60.9375,0 L8.4375,0 C7.5,0 0,0.3125 0,9.375 L0,148.75 C0,149.0625 0.9375,164.6875 10.3125,164.6875 L183.125,164.6875 C192.5,164.6875 193.4375,149.0625 193.4375,148.75 L193.4375,44.375 C193.75,38.75 189.0625,34.0625 183.4375,34.0625 Z M176.361111,148.5 L18.1388889,148.5 C17.8425926,147.318792 17.5462963,145.842282 17.25,145.251678 L17.25,16.5 L56.9524567,16.5 C71.2355783,39.8753815 78.9697317,51.5630722 80.1549168,51.5630722 L177.25,51.5630722 L177.25,145.251678 C177.25,145.842282 176.953704,147.318792 176.361111,148.5 Z"
                  id="形状" fill="#43484D"></path>
            <path d="M100.3125,21.375 C96.875,21.375 94.0625,17.55 94.0625,12.875 C94.0625,8.2 96.875,4.375 100.3125,4.375 L182.8125,4.375 C186.25,4.375 189.0625,8.2 189.0625,12.875 C189.0625,17.55 185.9375,21.375 182.5,21.375 L100.3125,21.375 Z"
                  id="路径" fill="#229BFF"></path>
        </g>
    </g>
</svg>