<?xml version="1.0" encoding="UTF-8"?>
<svg width="175px" height="175px" viewBox="0 0 175 175" version="1.1" xmlns="http://www.w3.org/2000/svg"
>
    <title>help1</title>
    <g id="页面-1" stroke="none" stroke-width="1" fill="none" fill-rule="evenodd">
        <g id="help1" fill-rule="nonzero">
            <path d="M87.5,0 C39.1666666,0 0,39.1666666 0,87.5 C0,135.833333 39.1666666,175 87.5,175 C135.833333,175 175,135.833333 175,87.5 C175,39.1666666 135.833333,0 87.5,0 Z M87.5,162.5 C46.6666666,162.5 12.5,129.166667 12.5,87.5 C12.5,45.8333334 45.8333334,12.5 87.5,12.5 C129.166667,12.5 162.5,45.8333334 162.5,87.5 C162.5,129.166667 128.333333,162.5 87.5,162.5 Z"
                  id="形状" fill="#5465CF"></path>
            <path d="M85,113.333333 C76.6666666,113.333333 75,115 75,123.333333 C75,131.666667 76.6666666,133.333333 85,133.333333 C92.5,133.333333 95,131.666667 95,123.333333 C95,114.166667 92.5,113.333333 85,113.333333 Z M84.1666666,41.6666666 C77.5,41.6666666 70.8333332,42.5 65,44.1666666 L65,58.3333334 C70,56.6666666 75.8333334,55.8333334 81.6666666,55.8333334 C92.5,55.8333334 95.8333332,57.5 95.8333334,66.6666666 C95.8333334,73.3333332 94.1666668,75 88.3333334,80 C80,86.6666666 77.5,90.8333334 77.5,98.3333334 L77.5,104.166667 L91.6666666,104.166667 L91.6666666,100.833333 C91.6666666,95.8333334 93.3333332,93.3333334 100.833333,87.5 C109.166667,82.5 112.5,75 113.333333,64.1666666 C113.333333,46.6666666 104.166667,41.6666666 84.1666666,41.6666666 L84.1666666,41.6666666 Z"
                  id="形状" fill="#6479EF"></path>
        </g>
    </g>
</svg>