<?xml version="1.0" encoding="UTF-8"?>
<svg width="200px" height="200px" viewBox="0 0 200 200" version="1.1" xmlns="http://www.w3.org/2000/svg"
>
    <title>hide</title>
    <g id="页面-1" stroke="none" stroke-width="1" fill="none" fill-rule="evenodd">
        <g id="hide" fill-rule="nonzero">
            <polygon id="路径" fill="#202425" opacity="0.0191905887" points="0 0 200 0 200 200 0 200"></polygon>
            <g id="编组" transform="translate(7.000000, 7.000000)">
                <path d="M0,93.3350001 C0,144.85592 41.81408,186.67 93.3350001,186.67 C144.85592,186.67 186.67,144.85592 186.67,93.3350001 C186.67,41.8140802 144.85592,0 93.3350001,0 C41.8140802,0 0,41.81408 0,93.3350001 Z"
                      id="路径" fill="#11AA66" opacity="0.729810138"></path>
                <path d="M114.148705,58.521045 C121.89551,58.521045 128.148955,64.77449 128.148955,72.521295 C128.148955,80.2680999 121.89551,86.521545 114.148705,86.521545 C106.4019,86.521545 100.148455,80.2681001 100.148455,72.521295 C100.148455,64.867825 106.4019,58.521045 114.148705,58.521045 Z"
                      id="路径" fill="#FFFFFF"></path>
                <path d="M64.867825,76.90804 L109.76196,121.802175 C114.24204,126.282255 111.06865,133.84239 104.72187,133.84239 L59.827735,133.84239 C55.907665,133.84239 52.734275,130.669 52.734275,126.74893 L52.734275,81.854795 C52.82761,75.6013501 60.3877449,72.521295 64.867825,76.90804 Z"
                      id="路径" fill="#FFFFFF"></path>
            </g>
        </g>
    </g>
</svg>