<?xml version="1.0" standalone="no"?><!DOCTYPE svg PUBLIC "-//W3C//DTD SVG 1.1//EN"
        "http://www.w3.org/Graphics/SVG/1.1/DTD/svg11.dtd">
<svg t="1653027482570" class="icon" viewBox="0 0 1024 1024" version="1.1" xmlns="http://www.w3.org/2000/svg"
     p-id="12515" width="200" height="200">
    <defs>
        <style type="text/css">@font-face { font-family: element-icons; src:
            url("chrome-extension://moombeodfomdpjnpocobemoiaemednkg/fonts/element-icons.woff") format("woff"),
            url("chrome-extension://moombeodfomdpjnpocobemoiaemednkg/fonts/element-icons.ttf ") format("truetype"); }
        </style>
    </defs>
    <path d="M57.138023 960l-4.916377 2.253977c6.984386 3.50514 11.778354 10.731991 11.778354 19.079356v-21.333333h-6.861977z m6.861977-3.146152l90.17909-41.350768c60.799706-38.04572 137.66091-38.940248 199.217434-2.68594l114.954005 33.609563 8.144919 5.429554c0.986336 0.657949 4.247834 2.026814 9.755072 3.492194 6.686602 1.778464 15.168147 3.255614 25.343411 4.327871 10.816736-1.261756 19.773793-2.871908 26.74994-4.728055 5.555494-1.479503 8.671044-2.770685 9.155973-3.093187l8.144919-5.430731 114.935173-33.603678c61.55417-36.256662 138.414198-35.364487 199.21508 2.677701l90.204984 41.356653V512c0-247.423117-200.576883-448-448-448S64 264.576883 64 512v444.853848z m896 3.146152v21.333333c0-8.347366 4.793968-15.574216 11.778354-19.079356l-4.917554-2.253977h-6.8608zM512 0c282.769949 0 512 229.230051 512 512v469.333333c0 23.56377-19.102897 42.666667-42.666667 42.666667h-28.444836l-113.909996-52.224c-42.99623-28.661407-99.00903-28.66023-142.002906 0.005885l-113.972377 33.322372C569.069756 1014.395586 545.402409 1020.692598 512 1024c-32.605572-2.774216-56.27292-9.071228-71.005572-18.892211l-113.993564-33.329435c-42.993876-28.662584-99.007853-28.662584-142.002905 0L71.110326 1024H42.666667C19.102897 1024 0 1004.897103 0 981.333333V512C0 229.230051 229.230051 0 512 0z m-48.70709 373.333922h97.41418c16.914832-49.634575 63.935264-85.333333 119.292469-85.333333h42.000478c69.587274 0 125.99908 56.411807 125.99908 125.99908v4.000662c0 69.587274-56.411807 125.99908-125.99908 125.99908h-42.000478c-55.357205 0-102.377637-35.698759-119.292469-85.333333h-97.41418c-16.914832 49.634575-63.935264 85.333333-119.292469 85.333333h-42.000478c-69.587274 0-125.99908-56.411807-125.99908-125.99908v-4.000662c0-69.587274 56.411807-125.99908 125.99908-125.99908h42.000478c55.357205 0 102.377637 35.698759 119.292469 85.333333z m279.707366 42.666667c11.598271 0 21.000239-9.551448 21.000239-21.333334s-9.401968-21.333333-21.000239-21.333333-21.000239 9.550271-21.000239 21.333333c0 11.781885 9.401968 21.333333 21.000239 21.333334z m-378.000773 0c11.598271 0 21.000239-9.551448 21.00024-21.333334s-9.401968-21.333333-21.00024-21.333333c-11.597094 0-20.999062 9.550271-20.999062 21.333333 0 11.781885 9.401968 21.333333 20.999062 21.333334zM464.001471 640h95.999412c26.50983 0 47.999706 21.489876 47.999706 47.999706v23.999264c0 39.765333-32.234814 72.001324-71.998971 72.001324h-48.000882c-39.764156 0-71.99897-32.235991-71.99897-72.000147v-23.999264c0-26.511007 21.489876-48.000883 47.998528-48.000883z"
          fill="#333333" p-id="12516"></path>
</svg>