<?xml version="1.0" encoding="UTF-8"?>
<svg width="140px" height="197px" viewBox="0 0 140 197" version="1.1" xmlns="http://www.w3.org/2000/svg"
>
    <title>menu</title>
    <g id="页面-1" stroke="none" stroke-width="1" fill="none" fill-rule="evenodd">
        <g id="menu" transform="translate(0.045184, 0.444910)" fill-rule="nonzero">
            <path d="M99.3356123,27.5080926 L76.7289651,27.5080926 L76.7289651,23.7217576 C76.7289651,15.8149992 72.3858161,8.46505482 65.4813229,4.56735703 L58.9109181,0.892384822 C55.5700342,-1.00078268 51.3382481,0.22420806 49.4450806,3.56509188 C47.5519131,6.9059757 48.7769038,11.1377619 52.1177876,13.0309294 L58.6881925,16.7059016 C61.2495367,18.1536179 62.8086158,20.826325 62.8086158,23.7217576 L62.8086158,27.5080926 L40.0906059,27.5080926 C17.9294098,27.5080926 0,45.5488652 0,67.5986985 L0,128.62551 C0,165.70932 30.1793172,196 67.3744904,196 L72.1630905,196 C109.246901,196 139.537581,165.820683 139.537581,128.62551 L139.537581,67.5986985 C139.426218,45.5488652 121.496808,27.5080926 99.3356123,27.5080926 Z M42.29553,45.1752462 L70.6250577,45.1752462 L70.6250577,92.7816331 L17.2675637,92.7816331 L17.2675637,70.2032125 C17.2675637,56.4644565 28.450272,45.1752462 42.29553,45.1752462 L42.29553,45.1752462 Z M72.9681013,179.687252 L68.388516,179.687252 C40.2719923,179.687252 17.2675637,156.789325 17.2675637,128.5663 L17.2675637,106.094381 L123.982552,106.094381 L123.982552,128.672802 C123.982552,156.789325 101.084625,179.687252 72.9681013,179.687252 Z"
                  id="形状" fill="#43484D"></path>
            <path d="M123.625058,45.1752462 L123.625058,92.7816331 L70.2675637,92.7816331 L70.2675637,70.2032125 C70.2675637,56.4644565 81.450272,45.1752462 95.29553,45.1752462 L123.625058,45.1752462 Z"
                  id="路径" fill="#E57171"
                  transform="translate(96.946311, 68.978440) scale(-1, 1) translate(-96.946311, -68.978440) "></path>
        </g>
    </g>
</svg>