<?xml version="1.0" encoding="UTF-8"?>
<svg width="200px" height="153px" viewBox="0 0 200 153" version="1.1" xmlns="http://www.w3.org/2000/svg"
>
    <title>net1</title>
    <g id="页面-1" stroke="none" stroke-width="1" fill="none" fill-rule="evenodd">
        <g id="net1" transform="translate(0.000000, 0.000000)" fill-rule="nonzero">
            <path d="M5.24434875,57.7064756 C4.14004757,57.7064756 3.02715265,57.3592086 2.07910207,56.6412369 C-0.231063167,54.8908395 -0.684971175,51.5994203 1.06503547,49.2888645 C12.4041423,34.3220092 27.2135751,21.9223514 43.892156,13.4293494 C61.3918337,4.51876777 80.2688607,0 99.9994064,0 C119.729952,0 138.60737,4.51798633 156.107047,13.4289588 C172.785628,21.9223514 187.595061,34.3227904 198.934559,49.2892551 C200.684956,51.5994203 200.231439,54.8916207 197.920492,56.6416275 C195.609155,58.3928062 192.318126,57.9377264 190.568119,55.6275611 C168.838738,26.9454178 135.827671,10.4961348 100.000188,10.4961348 C64.172704,10.4961348 31.1616374,26.9454178 9.43147453,55.6275611 C8.43907802,56.9388952 6.88886794,57.7085769 5.24434875,57.7064756 Z"
                  id="路径" fill="#5465CF"></path>
            <path d="M100.000578,152.457241 C98.6083948,152.45879 97.2729549,151.905637 96.2896263,150.920121 L19.3686226,73.9998984 C17.5664837,72.1980523 17.3195089,69.361878 18.7830736,67.2756535 C37.3784587,40.7575812 67.7399054,24.9262693 100.000188,24.9262693 C132.261251,24.9262693 162.623088,40.7575812 181.218474,67.2756535 C182.882542,69.6483189 182.307931,72.9213787 179.934875,74.5858383 C177.562209,76.2506885 174.28915,75.6752957 172.62469,73.3022395 C155.992594,49.5833969 128.842488,35.4227945 100.000188,35.4227947 C72.6192212,35.4227947 46.7648234,48.1845633 29.9842892,69.7713664 L103.71153,143.497436 C105.760757,145.546662 105.760757,148.869722 103.71153,150.91973 C102.728511,151.905756 101.392904,152.459119 100.000578,152.457241 Z"
                  id="路径" fill="#5465CF"></path>
            <path d="M100.000578,152.457241 C98.6083948,152.45879 97.2729549,151.905637 96.2896263,150.920121 L37.3569741,91.98825 C35.6446333,90.2756002 35.3263636,87.6137222 36.5866587,85.5456467 C43.0984028,74.8627924 52.271095,65.9205699 63.1113716,59.686952 C74.2969622,53.2537236 87.053262,49.8541012 99.999797,49.8541012 C112.946723,49.8541012 125.703413,53.2545051 136.889004,59.686952 C147.72928,65.9205701 156.901972,74.8627926 163.413717,85.5456467 C164.674012,87.6137222 164.355742,90.2756002 162.643401,91.98825 L103.71153,150.920512 C102.728235,151.906031 101.39274,152.459067 100.000578,152.457241 L100.000578,152.457241 Z M47.7894368,87.5772953 L99.999797,139.787265 L152.210548,87.5772953 C140.25386,70.4526191 121.024879,60.3498451 99.9994064,60.3498451 C78.974715,60.3498451 59.7461241,70.4526189 47.7894368,87.5772953 Z"
                  id="形状" fill="#5465CF"></path>
            <path d="M100.000578,147.20956 L140.487065,106.723073 C133.753835,91.0257463 118.163149,80.0284377 100.000578,80.0284377 C81.8380073,80.0284377 66.247712,91.0257463 59.5140919,106.723464 L100.000578,147.20956 Z"
                  id="路径" fill="#CEE8FA"></path>
            <path d="M100.000578,152.457241 C98.6083948,152.45879 97.2729549,151.905637 96.2896263,150.920121 L55.8027493,110.433635 C54.2850717,108.915562 53.8446259,106.626389 54.6906357,104.653534 C62.450832,86.5221798 80.2783439,74.7679148 100.000578,74.7791894 C119.722998,74.7672951 137.550821,86.5217649 145.310521,104.653534 C146.156306,106.626413 145.715885,108.915456 144.198407,110.433635 L103.71153,150.920121 C102.728373,151.905893 101.392822,152.459093 100.000578,152.457241 L100.000578,152.457241 Z M65.8570855,105.644163 L100.000578,139.787655 L134.144071,105.644163 C127.376735,93.0903723 114.26222,85.2668552 100.000578,85.2757163 C85.7391259,85.2675421 72.6249364,93.090865 65.8570855,105.644163 L65.8570855,105.644163 Z"
                  id="形状" fill="#5465CF"></path>
        </g>
    </g>
</svg>