<?xml version="1.0" encoding="UTF-8"?>
<svg width="200px" height="200px" viewBox="0 0 200 200" version="1.1" xmlns="http://www.w3.org/2000/svg"
>
    <title>save</title>
    <g id="页面-1" stroke="none" stroke-width="1" fill="none" fill-rule="evenodd">
        <g id="save" fill-rule="nonzero">
            <polygon id="路径" fill="#202425" opacity="0.01" points="0 0 200 0 200 200 0 200"></polygon>
            <path d="M6.6666666,100 C6.6666666,48.4533334 48.4533334,6.6666666 100,6.6666666 C151.546667,6.6666666 193.333333,48.4533332 193.333333,100 C193.333333,151.546667 151.546667,193.333333 100,193.333333 C48.4533332,193.333333 6.6666666,151.546667 6.6666666,100 Z"
                  id="形状" fill="#11AA66"></path>
            <g id="另存" transform="translate(46.000000, 47.000000)" fill="#FFFFFF">
                <path d="M63,5.74258274 L63,51.4782443 C63,54.64979 60.4361779,58 57.2735325,58 L47.7264675,58 C44.5638221,58 42,54.649712 42,51.4782443 L42,5.74258274 C42,2.57103711 44.5638221,0 47.7264675,0 L57.2735325,0 C60.4361779,0 63,2.57103711 63,5.74258274 L63,5.74258274 Z"
                      id="路径"></path>
                <path d="M17.3120007,43 L87.083694,43 C91.4982257,43 93.5548355,47.9704685 90.6506313,50.877892 L56.1494575,84.6484209 C54.3488094,86.4505264 51.4297702,86.4505264 49.6296602,84.6484209 L14.359064,50.877892 C11.4555516,47.9704685 13.5123151,43 17.6193854,43 L17.3120007,43 Z"
                      id="路径"></path>
                <path d="M7.0378869,93.0101986 L100.959543,93.0101986 C104.82868,92.8391472 108,94.8260847 107.996814,98.4937683 L107.996814,99.1140268 C108.115443,103.094753 104.905612,105.150994 100.959543,104.991361 L7.0378869,104.991361 C2.34888573,104.991361 0.252567537,103.497102 0,99.2715327 L0,98.6512743 C0.175635611,94.3879819 2.66307576,92.8653719 7.0378869,93.0101986 Z"
                      id="路径"></path>
            </g>
        </g>
    </g>
</svg>