<?xml version="1.0" standalone="no"?><!DOCTYPE svg PUBLIC "-//W3C//DTD SVG 1.1//EN"
        "http://www.w3.org/Graphics/SVG/1.1/DTD/svg11.dtd">
<svg t="1657784480154" class="icon" viewBox="0 0 1024 1024" version="1.1" xmlns="http://www.w3.org/2000/svg"
     p-id="14084" width="200" height="200">
    <defs>
        <style type="text/css">@font-face { font-family: element-icons; src:
            url("chrome-extension://moombeodfomdpjnpocobemoiaemednkg/fonts/element-icons.woff") format("woff"),
            url("chrome-extension://moombeodfomdpjnpocobemoiaemednkg/fonts/element-icons.ttf ") format("truetype"); }
        </style>
    </defs>
    <path d="M253.595 214.576c15.088 61.138-1.877 127.893-48.8 174.815-23 23-51.07 39.09-81.317 47.46l-0.163 150.33c30.204 8.293 58.205 24.3 81.127 47.223 47.344 47.344 63.975 115.064 47.77 176.843l129.322 74.57 0.038-0.037c71.613-71.612 187.376-72.243 259.364-1.547l128.11-74.057c-16.3-61.928 0.526-129.962 48.104-177.54 22.816-22.817 50.626-38.838 80.614-47.264l0.157-146.09c-30.465-8.235-58.726-24.31-81.832-47.416-47.612-47.612-64.139-115.8-47.515-177.81l-128.88-74.316c-71.584 70.12-186.044 70.417-257.595 0.551l-128.504 74.285z m-70.013-28.831L391.269 65.687l10.792 2.881c8.297 12.864 15.256 22.106 20.877 27.728 48.425 48.425 127.095 48.266 175.716-0.354 5.569-5.57 12.492-14.708 20.769-27.417l11.512-3.097 207.428 119.61 2.881 10.794c-30.08 48.023-24.35 111.987 17.271 153.608 25.422 25.42 59.178 37.453 92.546 36.115l6.91 6.91-0.258 239.667-6.412 6.412c-33.049-0.937-66.448 11.241-91.725 36.518-41.444 41.444-47.676 104.722-18.621 152.49l-3.3 12.266L629.97 959.876l-8.25-2.203c-5.65-10.73-12.984-20.8-22.005-29.82-48.425-48.425-127.095-48.267-175.716 0.354-8.697 8.697-15.844 18.356-21.439 28.631l-12.256 3.296-207.428-119.609-2.963-11.097c29.373-47.907 23.433-111.268-17.897-152.598-25.074-25.074-58.257-37.122-91.179-36.162l-7.57-7.57 0.259-239.667 5.776-9.993c33.485 1.31 67.448-10.854 93.068-36.473 28.025-28.026 33.808-79.538 17.35-154.536l3.863-6.684z m774.382 205.7v0.99l-0.002 0.023h-6.898v-6.897l0.042-0.003h0.954c1.475 0.11 2.92 0.728 4.049 1.857a6.375 6.375 0 0 1 1.855 4.03z"
          fill="#2F54EB" p-id="14085"></path>
    <path d="M512.5 643c72.073 0 130.5-58.427 130.5-130.5 0-72.073-58.427-130.5-130.5-130.5-72.073 0-130.5 58.427-130.5 130.5 0 72.073 58.427 130.5 130.5 130.5z m0 60C407.29 703 322 617.71 322 512.5S407.29 322 512.5 322 703 407.29 703 512.5 617.71 703 512.5 703z"
          fill="#85A5FF" p-id="14086"></path>
</svg>