<?xml version="1.0" standalone="no"?><!DOCTYPE svg PUBLIC "-//W3C//DTD SVG 1.1//EN"
        "http://www.w3.org/Graphics/SVG/1.1/DTD/svg11.dtd">
<svg t="1652529720859" class="icon" viewBox="0 0 1024 1024" version="1.1" xmlns="http://www.w3.org/2000/svg"
     p-id="10416" width="200" height="200">
    <defs>
        <style type="text/css">@font-face { font-family: element-icons; src:
            url("chrome-extension://moombeodfomdpjnpocobemoiaemednkg/fonts/element-icons.woff") format("woff"),
            url("chrome-extension://moombeodfomdpjnpocobemoiaemednkg/fonts/element-icons.ttf ") format("truetype"); }
        </style>
    </defs>
    <path d="M0 0h1024v1024H0V0z" fill="#202425" opacity=".01" p-id="10417"></path>
    <path d="M955.733333 512c0 245.077333-198.656 443.733333-443.733333 443.733333S68.266667 757.077333 68.266667 512 266.922667 68.266667 512 68.266667s443.733333 198.656 443.733333 443.733333z"
          fill="#11AA66" p-id="10418"></path>
    <path d="M512 102.4C285.7984 102.4 102.4 285.7984 102.4 512s183.3984 409.6 409.6 409.6 409.6-183.3984 409.6-409.6S738.2016 102.4 512 102.4zM34.133333 512C34.133333 248.081067 248.081067 34.133333 512 34.133333s477.866667 213.947733 477.866667 477.866667-213.947733 477.866667-477.866667 477.866667S34.133333 775.918933 34.133333 512z"
          fill="#11AA66" p-id="10419"></path>
    <path d="M512 204.8a68.266667 68.266667 0 0 1 68.266667 68.266667v17.066666a68.266667 68.266667 0 1 1-136.533334 0V273.066667a68.266667 68.266667 0 0 1 68.266667-68.266667z m0 204.8a68.266667 68.266667 0 0 1 68.266667 68.266667v273.066666a68.266667 68.266667 0 1 1-136.533334 0v-273.066666a68.266667 68.266667 0 0 1 68.266667-68.266667z"
          fill="#FFFFFF" p-id="10420"></path>
</svg>