<?xml version="1.0" standalone="no"?><!DOCTYPE svg PUBLIC "-//W3C//DTD SVG 1.1//EN"
        "http://www.w3.org/Graphics/SVG/1.1/DTD/svg11.dtd">
<svg t="1652530739115" class="icon" viewBox="0 0 1024 1024" version="1.1" xmlns="http://www.w3.org/2000/svg"
     p-id="11454" width="200" height="200">
    <defs>
        <style type="text/css">@font-face { font-family: element-icons; src:
            url("chrome-extension://moombeodfomdpjnpocobemoiaemednkg/fonts/element-icons.woff") format("woff"),
            url("chrome-extension://moombeodfomdpjnpocobemoiaemednkg/fonts/element-icons.ttf ") format("truetype"); }
        </style>
    </defs>
    <path d="M512 512m-204.8 0a204.8 204.8 0 1 0 409.6 0 204.8 204.8 0 1 0-409.6 0Z" fill="#5AC8FA" p-id="11455"></path>
    <path d="M455.68 327.68c-10.24 10.24-25.6 10.24-35.84 0-10.24-10.24-10.24-25.6 0-35.84l204.8-204.8c81.92-81.92 215.04-87.04 291.84-5.12 81.92 81.92 76.8 209.92-5.12 291.84l-204.8 204.8c-81.92 81.92-215.04 87.04-291.84 5.12-10.24-10.24-10.24-25.6 0-35.84 10.24-10.24 25.6-10.24 35.84 0 61.44 61.44 158.72 56.32 220.16-5.12l204.8-204.8c61.44-61.44 66.56-163.84 5.12-220.16s-158.72-56.32-220.16 5.12l-204.8 204.8z m112.64 368.64c10.24-10.24 25.6-10.24 35.84 0 10.24 10.24 10.24 25.6 0 35.84l-204.8 204.8c-81.92 81.92-215.04 87.04-291.84 5.12-81.92-81.92-76.8-209.92 5.12-291.84l204.8-204.8c81.92-81.92 215.04-87.04 291.84-5.12 10.24 10.24 10.24 25.6 0 35.84-10.24 10.24-25.6 10.24-35.84 0-61.44-61.44-158.72-56.32-220.16 5.12l-204.8 204.8c-61.44 61.44-66.56 163.84-5.12 220.16 61.44 61.44 158.72 56.32 220.16-5.12l204.8-204.8z"
          fill="" p-id="11456"></path>
</svg>